<svg width="130" height="34" viewBox="0 0 130 34" fill="none" xmlns="http://www.w3.org/2000/svg">
<g clip-path="url(#clip0_523_23304)">
<mask id="mask0_523_23304" style="mask-type:luminance" maskUnits="userSpaceOnUse" x="0" y="0" width="33" height="34">
<path d="M32.9191 0H0V33.9873H32.9191V0Z" fill="white"/>
</mask>
<g mask="url(#mask0_523_23304)">
<path d="M24.667 14.5205V24.2327L32.9191 19.3692L24.667 14.5205Z" fill="#E10000"/>
<path d="M24.667 24.2334V33.9561L32.9191 29.0905L24.667 24.2334Z" fill="#C11001"/>
<path d="M24.6668 14.5205V24.2327L16.3877 19.3692L24.6668 14.5205Z" fill="#9C0017"/>
<path d="M24.6668 24.2334V33.9561L16.3877 29.0905L24.6668 24.2334Z" fill="#FD0221"/>
<path d="M24.6668 4.80664V14.5209L16.3877 9.6659L24.6668 4.80664Z" fill="#E10000"/>
<path d="M32.9191 19.3691V29.0898L24.667 24.2327L32.9191 19.3691Z" fill="#F10000"/>
<path d="M16.4785 0V9.71428L24.716 4.86137L16.4785 0Z" fill="#9C0017"/>
<path d="M8.25195 4.86133V14.5629L16.4791 9.71425L8.25195 4.86133Z" fill="#F10000"/>
<path d="M16.4785 9.71387V19.426L24.716 14.5626L16.4785 9.71387Z" fill="#C11001"/>
<path d="M8.25195 24.2832V33.9869L16.4791 29.1488L8.25195 24.2832Z" fill="#E10000"/>
<path d="M0 19.4268V29.1494L8.25208 24.2839L0 19.4268Z" fill="#C11001"/>
<path d="M8.25195 14.5635V24.2841L16.4791 19.427L8.25195 14.5635Z" fill="#E10000"/>
<path d="M16.4785 19.4268V29.1494L24.716 24.2839L16.4785 19.4268Z" fill="#F10000"/>
<path d="M16.4791 0V9.71428L8.25195 4.86137L16.4791 0Z" fill="#E10000"/>
<path d="M16.4791 9.71387V19.426L8.25195 14.5626L16.4791 9.71387Z" fill="#FD0221"/>
<path d="M8.25208 14.5635V24.2841L0 19.427L8.25208 14.5635Z" fill="#F10000"/>
<path d="M16.4791 19.4268V29.1494L8.25195 24.2839L16.4791 19.4268Z" fill="#9C0017"/>
<path d="M8.25208 24.2832V33.9869L0 29.1488L8.25208 24.2832Z" fill="#F10000"/>
</g>
</g>
<path d="M121.107 28.6957C116.467 28.6957 112.979 25.2717 112.979 20.2797C112.979 15.3197 116.467 11.9277 121.107 11.9277C125.779 11.9277 129.235 15.3197 129.235 20.2797C129.235 25.2717 125.779 28.6957 121.107 28.6957ZM121.107 26.1997C124.179 26.1997 126.451 23.9917 126.451 20.2797C126.451 16.6317 124.179 14.4237 121.107 14.4237C118.067 14.4237 115.795 16.6317 115.795 20.2797C115.795 23.9917 118.067 26.1997 121.107 26.1997Z" fill="#0A0A0A"/>
<path d="M108.81 9.11171C107.722 9.11171 106.89 8.34371 106.89 7.19171C106.89 6.10371 107.722 5.30371 108.81 5.30371C109.93 5.30371 110.794 6.10371 110.794 7.19171C110.794 8.34371 109.93 9.11171 108.81 9.11171ZM107.434 28.3757V12.2157H110.186V28.3757H107.434Z" fill="#0A0A0A"/>
<path d="M101.13 15.2876V5.97559H103.882V28.3756H101.13V25.3356C100.042 27.2876 98.1858 28.6636 95.4978 28.6636C91.2738 28.6636 88.0098 25.2716 88.0098 20.2796C88.0098 15.3196 91.2738 11.9276 95.4978 11.9276C98.1858 11.9276 100.042 13.3036 101.13 15.2876ZM96.0098 26.1676C99.0498 26.1676 101.194 23.9916 101.194 20.2796C101.194 16.5996 99.0498 14.4236 96.0098 14.4236C92.9698 14.4236 90.7938 16.5996 90.7938 20.2796C90.7938 23.9916 92.9698 26.1676 96.0098 26.1676Z" fill="#0A0A0A"/>
<path d="M78.5597 28.6638C74.5917 28.6638 71.6797 26.2318 71.6797 21.8478V12.2158H74.4317V21.6238C74.4317 24.6638 76.1597 26.1678 78.5597 26.1678C80.9917 26.1678 82.6557 24.6638 82.6557 21.6238V12.2158H85.4077V21.8478C85.4077 26.2318 82.5277 28.6638 78.5597 28.6638Z" fill="#0A0A0A"/>
<path d="M63.0021 23.6083V14.5523H59.9941V12.2163H63.0021V8.6963L65.7541 6.9043V12.2163H69.5621V14.5523H65.7541V23.3843C65.7541 25.0163 66.3941 25.9443 67.8981 25.9443H69.5621V28.3763H67.6421C64.5381 28.3763 63.0021 26.3923 63.0021 23.6083Z" fill="#0A0A0A"/>
<path d="M50.28 28.6963C45.224 28.6963 41.992 26.1683 41 21.6883L43.752 20.9202C44.456 24.1203 46.76 26.0403 50.28 26.0403C53.608 26.0403 55.752 24.7283 55.752 22.6163C55.752 20.7923 54.344 19.6722 50.728 18.7122L47.816 17.9443C44.008 16.9203 41.992 14.8723 41.992 11.8643C41.992 8.21625 45.192 5.65625 49.864 5.65625C54.408 5.65625 57.576 7.92825 58.44 12.2163L55.784 12.8883C55.112 9.68825 52.84 8.31225 49.928 8.31225C46.984 8.31225 45 9.62425 45 11.6403C45 13.6243 46.408 14.5203 49.128 15.2563L52.008 16.0243C56.52 17.2402 58.696 19.3843 58.696 22.3603C58.696 26.1683 55.432 28.6963 50.28 28.6963Z" fill="#0A0A0A"/>
<defs>
<clipPath id="clip0_523_23304">
<rect width="33" height="34" fill="white"/>
</clipPath>
</defs>
</svg>
